<svg xmlns="http://www.w3.org/2000/svg" width="1440" height="1080" viewBox="0 0 1440 1080" role="img" aria-labelledby="title description">
  <title id="title">Medical chronology with source viewer</title>
  <desc id="description">A fictional case shows searchable medical entries on the left and the selected original-document passage on the right, with separate transcript and PDF page numbers.</desc>
  <defs><style>
    text { font-family: Arial, Helvetica, sans-serif; fill: #183247; font-size: 16px; }
    .small { font-size:14px; } .muted { fill:#52636F; } .bold { font-weight:700; }
    .serif { font-family:Georgia, 'Times New Roman', serif; }
    .link { fill:#245C89; text-decoration:underline; }
  </style></defs>
  <rect width="1440" height="1080" fill="#F6F5F1"/>
  <rect width="1440" height="72" fill="#FFFFFF"/>
  <path d="M34 20h18l8 8v26H34zM52 20v9h8M28 27v33h25M40 36h12M40 43h12" fill="none" stroke="#176864" stroke-width="2" stroke-linecap="round"/>
  <text x="76" y="46" class="serif bold" style="font-size:26px">Record Review</text>
  <text x="1150" y="43">Cases</text><circle cx="1357" cy="36" r="19" fill="#E8F2EF"/><text x="1357" y="42" text-anchor="middle" class="small bold">JR</text>
  <line x1="0" y1="72" x2="1440" y2="72" stroke="#D8DEDE"/>
  <text x="32" y="110" class="small muted">Cases / Demonstration case</text>
  <text x="32" y="153" style="font-size:28px;font-weight:700">Taylor v. Commissioner</text>
  <text x="32" y="183" class="small muted">DEMO-001 · Synthetic record · 14 documents · 1,318 pages</text>
  <rect x="1228" y="131" width="180" height="36" rx="6" fill="#FFF2D8"/>
  <text x="1318" y="154" text-anchor="middle" style="font-size:14px;fill:#80590D">3 items need review</text>
  <text x="48" y="234" class="muted">Summary</text>
  <text x="176" y="234" class="bold" style="fill:#176864">Medical chronology</text>
  <text x="389" y="234" class="muted">Procedural chronology</text>
  <text x="624" y="234" class="muted">Five-step review</text>
  <line x1="32" y1="254" x2="1408" y2="254" stroke="#D8DEDE"/>
  <rect x="160" y="251" width="197" height="3" fill="#176864"/>

  <text x="32" y="294" class="small bold">Search medical entries</text>
  <rect x="32" y="306" width="304" height="44" rx="8" fill="#FFFFFF" stroke="#7C8B94"/>
  <circle cx="52" cy="326" r="6" fill="none" stroke="#52636F" stroke-width="1.8"/><path d="M57 331l5 5" stroke="#52636F" stroke-width="1.8"/>
  <text x="74" y="334" class="muted">Find a term, provider, or date</text>
  <text x="352" y="294" class="small bold">Provider</text>
  <rect x="352" y="306" width="180" height="44" rx="8" fill="#FFFFFF" stroke="#7C8B94"/>
  <text x="366" y="334">All providers</text><path d="M506 325l5 5 5-5" fill="none" stroke="#52636F" stroke-width="1.8"/>
  <rect x="548" y="306" width="164" height="44" rx="8" fill="#FFFFFF" stroke="#7C8B94"/>
  <text x="630" y="334" text-anchor="middle" class="bold">Filters</text>
  <text x="32" y="380" class="small muted">42 entries · Date, oldest first</text>
  <text x="712" y="380" text-anchor="end" class="small link">Group by: none</text>

  <rect x="32" y="399" width="680" height="448" rx="8" fill="#FFFFFF" stroke="#D8DEDE"/>
  <path d="M40 399h664q8 0 8 8v40H32v-40q0-8 8-8" fill="#EDF0F1"/>
  <text x="48" y="429" class="small bold">Date ↑</text><text x="150" y="429" class="small bold">Provider</text>
  <text x="292" y="429" class="small bold">Reason for visit</text><text x="455" y="429" class="small bold">Prescription</text><text x="624" y="429" class="small bold">Source</text>
  <text x="48" y="481">May 9,</text><text x="48" y="505">2022</text>
  <text x="150" y="481">Morgan Lee,</text><text x="150" y="505">MD</text>
  <text x="292" y="481">Lower back</text><text x="292" y="505">pain</text>
  <text x="455" y="481">None recorded</text><text x="624" y="491" class="link">Tr. 398</text>
  <line x1="32" y1="535" x2="712" y2="535" stroke="#D8DEDE"/>
  <rect x="33" y="536" width="678" height="96" fill="#E8F2EF"/><rect x="32" y="536" width="4" height="96" fill="#176864"/>
  <text x="48" y="571" class="bold">Jul 18,</text><text x="48" y="595" class="bold">2022</text>
  <text x="150" y="571">Morgan Lee,</text><text x="150" y="595">MD</text>
  <text x="292" y="571">Follow-up:</text><text x="292" y="595">back pain</text>
  <text x="455" y="571">Naproxen</text><text x="455" y="595">250 mg · new</text>
  <text x="624" y="581" class="link bold">Tr. 432</text>
  <line x1="32" y1="632" x2="712" y2="632" stroke="#D8DEDE"/>
  <text x="48" y="667">Aug 2,</text><text x="48" y="691">2022</text>
  <text x="150" y="667">Jordan Park,</text><text x="150" y="691">PT</text>
  <text x="292" y="667">Physical</text><text x="292" y="691">therapy</text>
  <text x="455" y="667">Not documented</text><text x="624" y="677" class="link">Tr. 448</text>
  <line x1="32" y1="729" x2="712" y2="729" stroke="#D8DEDE"/>
  <text x="48" y="762">Sep 2022</text><text x="48" y="790" class="small muted">Day unclear</text>
  <text x="150" y="762">Morgan Lee,</text><text x="150" y="786">MD</text>
  <text x="292" y="762">Office visit</text><rect x="292" y="797" width="130" height="27" rx="4" fill="#FFF2D8"/>
  <text x="303" y="815" style="font-size:12px;fill:#80590D">Date needs review</text>
  <text x="455" y="762">List mentions</text><text x="455" y="786">naproxen</text><text x="624" y="775" class="link">Tr. 461</text>

  <rect x="32" y="871" width="680" height="147" rx="8" fill="#FFFFFF" stroke="#D8DEDE"/>
  <text x="52" y="903" class="bold">Selected entry · Jul 18, 2022</text>
  <text x="52" y="930" class="small muted">Open a field’s source or record a correction with supporting evidence.</text>
  <rect x="52" y="951" width="145" height="44" rx="8" fill="#FFFFFF" stroke="#7C8B94"/><text x="124" y="979" text-anchor="middle" class="bold">Correct entry</text>
  <text x="227" y="979" class="link">View history</text><text x="518" y="979" class="small" style="fill:#176864">Passage located</text>

  <rect x="736" y="278" width="672" height="740" rx="8" fill="#FFFFFF" stroke="#D8DEDE"/>
  <text x="760" y="313" style="font-size:20px;font-weight:700">Record source</text>
  <path d="M1373 296l14 14m0-14l-14 14" stroke="#52636F" stroke-width="1.7"/>
  <text x="760" y="343" class="small muted">12-7.pdf · PDF page 19 of 84</text>
  <text x="760" y="367" class="small bold">Tr. 432 · Ex. 8F/12</text>
  <line x1="736" y1="389" x2="1408" y2="389" stroke="#D8DEDE"/>
  <text x="760" y="422" class="small">‹ Previous passage</text><text x="950" y="422" class="small">Next passage ›</text><text x="1360" y="422" text-anchor="end" class="small">100%  −  +</text>
  <rect x="755" y="449" width="633" height="490" fill="#EDF0F1"/>
  <rect x="786" y="469" width="572" height="448" fill="#FFFFFF" stroke="#D8DEDE"/>
  <text x="820" y="502" class="small muted">SYNTHETIC DOCUMENT · DESIGN REFERENCE</text>
  <text x="820" y="544" class="serif bold" style="font-size:24px">Clinical visit note</text>
  <text x="820" y="582" class="serif">Date of service: July 18, 2022</text>
  <text x="820" y="611" class="serif">Provider: Morgan Lee, MD</text>
  <text x="820" y="662" class="serif">Reason for visit: follow-up for lower back pain.</text>
  <rect x="812" y="682" width="508" height="71" rx="2" fill="#FFF0B6"/>
  <rect x="812" y="682" width="3" height="71" fill="#80590D"/>
  <text x="824" y="710" class="serif" style="font-size:18px">Plan: Start naproxen 250 mg twice daily.</text>
  <text x="824" y="739" class="serif" style="font-size:18px">Return for follow-up in four weeks.</text>
  <text x="820" y="798" class="serif">The patient discussed ongoing symptoms.</text>
  <text x="820" y="827" class="serif">See the full note for examination findings.</text>
  <text x="1316" y="887" text-anchor="end" class="small muted">432</text>
  <circle cx="765" cy="971" r="4" fill="#176864"/>
  <text x="779" y="977" class="small" style="fill:#176864">Passage located</text>
  <text x="931" y="977" class="small muted">Review source context before relying on an entry.</text>
  <text x="1408" y="1051" text-anchor="end" class="small muted">Static design reference · fictional case and medical information</text>
</svg>
